<svg xmlns="http://www.w3.org/2000/svg" xmlns:xlink="http://www.w3.org/1999/xlink" id="Layer_1" x="0px" y="0px" viewBox="0 0 1459.6 594.7" style="enable-background:new 0 0 1459.6 594.7;" xml:space="preserve"><style type="text/css">	.st0{fill:#F7F0E8;}	.st1{enable-background:new    ;}</style><title>Deer Park Heights Logo</title><g id="Layer_3">	<path class="st0" d="M358.7,279c-0.1-0.7-0.4-1.4-0.7-2c-0.9-1.8-2.2-3.5-3.8-4.8c-2.6-2.2-5.5-4.1-8.5-5.5c-1-0.4-8.2-4-22.6-11.2  c-10.5-5.3-8.6-5.1-19.9-10.7c-5.1-2.5-8-3.8-12.1-6.8c-4.7-3.4-7-5.1-9.4-7.7c-2.6-3.1-5.9-5.5-9.6-6.9  c-4.2-1.7-12.1-4.7-16.6-6.9c-2.3-1-3.7-3.4-3.4-5.8c0.3-1.7,1.1-3.2,2.3-4.4c2.2-2.3,4.7-4.4,7.5-6.1c6.9-4.2,12.4-7.2,12.4-7.2  c2.4-1.2,4.8-2.5,7.1-4c2.3-1.6,4.4-3.5,6.4-5.5c2.6-2.6,3.9-3.9,4.9-5.8c1.3-2.4,2.1-5.1,2.3-7.8c0.1-1.1,0.1-3,0-6.9  c-0.1-5.1-0.1-7.7-0.2-8.6c-0.2-2.9-0.5-4.2-0.2-6.5c0.1-1.2,0.3-2.4,0.7-3.6c0.5-1,0.7-2,0.8-3.1c0-0.9-0.2-1.2-0.3-1.2  c-0.7-0.5-2.2,0.8-2.4,0.9c-1.4,1.2-2.3,2.9-2.5,4.7c-1.5,7.9-1.8,11-1.8,11c-0.8,8.7-1,9.9-2,11.6s-2.2,3-4.6,5.4  c-2.9,3-6.1,5.6-9.7,7.7c-2.5,1.4-5.6,2.4-11.8,4.3c-10.3,3.2-12.9,3.2-14.4,3.1c-4-0.2-6.2-0.4-8.3-2c-1.1-0.9-3.6-3.3-6.2-3.9  c-0.4-0.1-0.9-0.2-1.3,0.1c-0.5,0.5-0.1,1.6,0.3,2.6c1.6,4.6,0.8,4.3,2.1,7.2c1.1,2.5,2.2,3.9,2.1,4s-1.5-1.5-2.5-2.8  c-2.2-3.1-3.2-6.2-4.2-10.4c-0.8-3.6-1.3-6.7-2.6-16.9c-0.2-1.5-0.5-3.6-0.8-6.3c-0.4-2.8-0.6-5.7-0.6-8.5c0.1-1.2,0-2.3-0.1-3.5  c0-1.2-0.3-2.3-0.7-3.4c-0.3-0.7-0.7-1.5-1.3-1.6s-1,0.4-1.8,1.5c-1.1,1.6-1.8,3.5-2.2,5.4c-0.7,3.2-1.1,4.8-1.3,6.2  c-0.3,2.8-0.5,5.7-0.5,8.5c-0.1,3-0.1,5.7-0.1,6.2c0,2.9,0,4.4,0,4.4c0.2,1,0.4,2,0,2.3c-0.3,0.2-0.6,0-1.6-0.3  c-0.7-0.2-1.4-0.3-2-0.4c-2.1-0.4-5.8-1-5.9-1c-4.1-0.6-8.6-3.2-9.7-3.9c-6-3.6-9.2-8.5-12.9-14.2c-2.7-4.2-4.9-8.7-6.6-13.3  c-1.8-5.2-2.6-7.9-2.8-8.5s-0.3-2.2-0.7-2.2c-0.2,0-0.4,0.5-0.8,2c-1.3,4.3-1.5,4.5-1.4,5.2c0.1,0.5,0.1,0.9-0.1,1.4  c-0.1,0.2-0.4,0.9-1.1,1c-0.6,0-1.2-0.4-1.4-1c-0.1-0.4-0.1-0.9,0.1-1.4c0.5-1.8,0-0.9,0.7-3.3c0.4-1.4,0.9-2.7,1.5-4  c1.5-3.4,2-4.4,2.7-6c0.3-0.7,0.8-2,2.2-6.3c3.5-10.9,2.5-10,4.4-15.2c0.8-2.5,1.4-5.1,1.7-7.8c0.1-1,0.2-2.1-0.1-2.2  s-0.9,1.1-1.3,1.8c-1.3,2.5-2.9,4.7-4.3,7.1c-1.2,2.1-2.4,4.2-4.1,6.7s-1.8,2.3-4.1,5.7c-2.2,3.2-3.3,4.8-3.7,5.6  c-0.7,1.2-1.5,2.3-2.3,3.4c-0.8,1.2-1.6,2.1-2.6,2.1c-0.3,0-0.9-0.1-0.9-0.3s0.3-0.5,0.7-0.8c0.3-0.2,0.7-0.5,1-0.7  c0.2-0.1,1.5-1,1.5-2c0-0.4-0.2-0.8-0.6-1.1c-0.7-0.8-1.6-1-3.3-1.7c0,0-0.9-0.3-1.8-0.9c-1.2-0.6-2.3-1.3-3.4-2.1  c-1.3-0.7-2.6-1.3-4-1.8c-6-2.2-12.6-4-12.6-4c-5.1-1.4-10.1-3.2-14.9-5.4c-4.7-2.2-9.2-4.8-13.4-7.8c-4.3-2.9-8.4-6.2-12.2-9.8  c-2.9-2.8-5.6-5.8-8.1-8.9c-0.4-0.5-4.5-5.8-5.7-7.2c-0.5-0.5-0.9-1-1.3-1.6c-0.1-0.3-0.4-0.6-0.6-0.8c-0.4-0.2-0.8-0.3-1.2-0.1  c-0.4,0.2-0.8,0.6-0.9,1.1c-0.2,0.7-0.2,1.3,0,2c0.1,0.6,0.3,1.2,0.5,1.7c1,2.4,1.7,3.8,1.7,3.8c0.6,1.2,0.9,1.8,1.6,3  c1.5,2.8,1.9,3.2,3.8,6.5c1.5,2.6,1.6,2.9,2.5,4.2c2.3,3.5,5.2,6.5,8.5,9c1.7,1.3,3.9,2.9,4.1,3c2.2,1.5,3.1,2.1,3.1,2.2  c-0.2,0.3-5.6-2.1-6.3-2.4c-1.7-0.7-3.8-1.7-6.7-3.3c-2.7-1.4-5.3-3-7.8-4.8c-0.6-0.4-0.9-0.7-6.5-5.3c-7.9-6.4-5.7-4.8-7.7-6.4  c0,0-3.3-2.7-5.3-4.4c-1.2-1.1-1.8-1.7-1.9-1.7c-0.2-0.2-0.4-0.4-0.6-0.6c-0.3-0.3-0.8-0.3-1.2-0.2c-0.3,0.1-0.4,0.4-0.5,0.6  c-0.1,0.5,0,1,0.3,1.5c0.3,0.6,0.6,1.2,1,1.7c1,1.3,1.7,2.7,2.6,4c2.5,3.6,2.4,4,4.9,7.7c0.8,1.2,1.5,2.2,2.5,3.4  c2.4,3,2.8,3,6.5,7.1c1.6,1.9,3.2,3.6,5,5.3c0.4,0.3,1,0.9,1.8,1.6c1.8,1.4,3.6,2.6,5.6,3.8c2.5,1.6,5.2,2.9,8,3.8  c0.4,0.1,1.8,0.5,3.4,1c2,0.6,2.1,0.6,3.1,0.8c1.6,0.5,1.9,0.6,3.4,1.1c0.5,0.1,1.2,0.3,2.2,0.6s1.8,0.4,3,0.6  c0.5,0.1,0.9,0.1,1.7,0.2s1.2,0.2,1.4,0.3c6.6,1.5,11.8,2.8,11.8,2.8c1.7,0.4,2.7,0.7,4,1.1l2.8,0.9l2,0.7c1.9,0.7,3.8,1.5,5.6,2.5  c0.9,0.4,1.5,0.7,2.3,1.2c2.4,1.3,4.6,2.8,6.6,4.6c1.5,1.3,2.9,2.7,4.2,4.2c1,1.1,1.3,1.5,2.6,3c1.8,2.1,2.9,3.2,3.9,4.3  c2.1,2.3,3.5,4,6.1,7.5c2.1,2.6,4.1,5.4,6,8.2c1,1.7,2.2,3.3,3.4,4.9c0.4,0.4,0.7,0.8,1,1.1c1.9,2.1,3.1,3.1,4.9,4.8  c2.6,2.5,2.3,2.5,4.2,4.3c1.7,1.6,3.1,2.7,4,3.3c2.5,1.9,5,3.6,7.7,5.2c1.4,0.8,4.3,2.3,9.9,5.1c2.1,1.1,4.2,2.3,6.4,3.4  c0.6,0.3,1.2,0.6,1.8,1.1c2.6,2.2,2.8,6.3,2.8,6.7c0,0.8-0.1,1.7,0.1,3.4c0,0.6,0.1,1.3,0.3,1.9c0.4,1,1,1.9,1.9,2.6  c0.3,0.3,0.7,0.5,1.1,0.6c1.3,0.6,2.5,1.6,4.8,3.5c2.7,2.3,5.2,4.7,7.6,7.3c0.8,0.8,1.5,1.6,2.2,2.6c-0.2,0.2-7.9-5.4-9.9-7.3  c-0.6-0.5-1.4-0.9-2.1-1.1c-0.7-0.2-0.9-0.1-1,0c-0.4,0.4-0.1,1.4,0.2,2.3c0.8,2.6,1.4,4.6,1.1,4.7s-2.3-3.1-3.7-5.2  c0,0-2.6-3.9-7.4-10.1c-2.8-3.7-5.9-7.2-9.3-10.4c-4.8-4.5-10.1-8.4-15.7-11.7c-3.8-2.4-7.9-4.4-12.2-5.9c-5.5-1.9-0.9,0.1-9.9-2.3  c-0.5-0.1-1.7-0.5-2.4,0.1c-1,0.9-0.5,3-0.2,3.9c2.5,9.7,4.4,13.2,4.4,13.2c9.1,16.7,8,15.6,10.3,18.8c4.6,6.4,9.4,11.3,10.4,12  c0.4,0.2,0.7,0.5,0.9,0.9c0.4,0.6,0.6,1.2,0.9,1.9c0.6,0.7,1.4,1.2,2.3,1.3c2.5,0.5,5.1,0.8,7.7,0.7c6.1,0,6.7,0.2,8.3,0.1  c0.9-0.1,1.9,0.1,2.8,0c0.5,0,1-0.1,1.3,0.2s0,0.7-0.1,0.9c-0.2,0.4-0.6,0.8-1,1c-0.6,0.3-1.7,0.7-5.6,0.3c-1,0-2,0-2.9,0.2  c-0.3,0-0.7,0.1-0.9,0.3c-0.4,0.4,0,1.2,0,1.4c1,2.7,0.3,5.7,0.6,8.6c0.5,5.3-1.3,11.5-1.8,13.4c-1.3,5-3.6,9.7-6.6,13.9  c-2,2.6-3,5.9-5.2,8.2c-0.6,0.6-1,1.4-1,2.2c0,0.6,0.3,1.1,0.7,1.4c0.8,0.5,1.8,0.1,3.1-0.4c1.1-0.5,2.2-1.1,3.2-1.7  c2-1.1,3-1.7,3.2-1.5c0.7,0.5-0.6,3.2-2.8,8.7c-2.1,5.2-1.6,4.6-2.7,7c-1.7,3.8-3.7,7.5-5.8,11.1c-5.4,9.7-6.7,11.6-9.1,16.7  c-1,2-1.7,3.6-2.5,5.7c-2.4,6.6-3.9,13.5-4.3,20.6c-0.6,7.4-0.3,13.3,0.3,23.9c0.1,2.6,0.2,3.9,0.4,5.2c0.9,7.3,2.9,13.1,5.6,19.5  c2.6,6.1,4.8,10.3,8.2,16.9c12.1,23.5,12.6,24.4,13.6,27c4.6,11.8,6.3,21.4,6.4,24.3c0,2.4,1,4.7,0.6,7.1c-0.1,0.4,0,0.9,0.2,1.3  c0.6,0.6,1.8,0.2,2.1,0.1c3.7-1.2,3-18.5,5.8-19c1.3-0.2,3,3.2,4.6,6.5c1.6,3.2,2.7,6.7,3.5,10.2c1.1,6,1.2,12.1,0.4,18.1  c0,0-1.4,11-6,20.3c-0.2,0.3-0.3,0.7-0.5,1.1s-0.3,0.4-0.2,0.6s0.4,0.3,0.6,0.3c0.4,0,0.8-0.2,1-0.6c1-1.1,2.5-1.6,3.6-2.6  c2.3-2,12-8.3,14.1-9.6c8.3-5.5,16.4-13.6,20.7-18c26.1-26.2,39.8-61.6,39.8-61.6c9.5-24.5,10.5-43.8,13-51.6  c0.3-0.9,0.4-1.8,0.4-2.6c-0.1-3.5-2.5-6.2-4-7.7c-5.3-5.5-9.2-7.8-13.5-11.7c-5.6-5-7.1-7.5-7.6-8.2c-0.7-1.1-1.9-3.3-2.2-3.2  c0,0-0.1,0.1,0.5,2.1c0.4,1.4,0.6,2,1,3c1.2,4,2.1,8.2,2.5,12.4c0.3,3.2,0.4,6.5,0.3,9.8c0,3.2-0.2,6.4-0.8,9.5  c-0.5,2.6-1.1,5.2-2,7.7c-0.8,2.5-1,2.7-1.1,2.7c-0.4-0.1,0.1-4.3,0.3-5.8c0.8-8.8,0.7-17.7-0.5-26.5c-0.7-5.9-1.2-10.5-3.2-15.9  c-0.3-0.9-0.9-2.2-1.5-4.2c-1.4-4.3-2.4-7.5-2.2-11.5c0.1-1.8,0.4-3.7,1.1-5.4c0.5-1.2,2.2-5.8,6.7-7.6c0.6-0.2,1.2-0.4,1.8-0.6  c0.6-0.1,1.3-0.2,1.9-0.3c2.7-0.4,5.3-1,7.9-1.7c2.8-0.7,4.2-1,6.2-1.3c2.2-0.4,4.4-0.6,6.6-0.6c1.9,0,3.9,0.3,5.8,0.8  c5.2,1.4,5,3.5,8.3,3.9c4.6,0.5,9.5-3.3,11.1-4.5c0.9-0.7,1.8-1.4,2.8-1.9c1.6-1,3.3-1.7,5.1-2.3c1.1-0.3,2.2-0.5,3.3-0.6  c4.2-0.9,6.9-4.4,7.8-5.5c0.2-0.3,1.4-3.2,3.6-8.9C358.7,282.6,359,280.8,358.7,279z M278,254.6c-1.9-2.2-3.8-4.4-5.7-6.5  c-1-1.1-1.9-2.6-3.5-2.9c-0.5-0.1-1.1,0-1.6,0.1c-1,0.3-1.9,0.9-2.9,1.2c-2.4,0.9-4.2,0.1-5.5-2.2c-0.5-0.8-0.9-1.6-1.4-2.4  c-0.6,0.2-1.1,0.5-1.6,0.4s-0.8-0.6-1.2-1c1.6-1.6,3.2-3.2,4.8-4.6c0.7-0.6,1.5-1.1,2.3-1.5c0.4-0.3,0.9-0.2,1.1,0.2  c0,0,0.1,0.1,0.1,0.2c0.4,0.6,0.8,1.2,1.3,1.7c1.5,1.7,3.4,1.9,5.4,1.3c2.8,5.3,5.6,10.6,8.5,15.9L278,254.6z"></path>	<path class="st0" d="M265.2,214.8c-2.1,2.1-8.8,0-9.1-2.2c0-0.5,0.2-0.9,0.5-1.3c1.6-2.2,3.4-4.1,5.5-5.8c1.4-1.3,2.8-2.5,4.4-3.6  c1.6-1,3.3-1.9,5-2.7c4.3-2.2,4.8-2.4,7-3.6c3.1-1.7,4.7-2.6,5.6-3.5c0.7-0.9,1.5-1.7,2.5-2.3c1-0.5,2.1-0.8,3.2-1  c1.4-0.3,2.8-0.5,4.2-0.5c3-0.1,9.5-1.9,14.8-5c5.2-3.1,9.5-7.4,12.6-12.5c4.4-6.8,6.9-15.4,7-17.3c0.2-1,0.4-2,0.8-3  c0-0.4,0.3-0.8,0.6-1.1c0.4-0.1,0.9-0.1,1.3,0.2c1.6,0.9,0.9,5.7,0.7,6.9c-0.9,5.6-2.5,11-4.8,16.1c-1,2.4-2.1,4.7-3.4,6.9  c-3.2,5-7.2,9.5-12,13c-1.9,1.6-4,3-6.2,4.3c-2.1,1-4.3,1.9-6.5,2.5c-3.7,1.1-3.9,0.9-10.2,2.4c-6.1,1.4-5.1,1.5-10.6,2.8  c-1,0.2-2,0.5-3,0.9c-1.8,0.6-3.4,1.5-4.9,2.7c-1.9,1.6-3.4,3.6-4.5,5.9C265.6,214.2,265.4,214.6,265.2,214.8z"></path>	<path class="st0" d="M273.2,173.3c-1.6-3.6-0.9-7.2,0.7-14.3c0.4-2.4,1.1-4.8,2.1-7c1.3-2.2,2.7-4.3,4.4-6.3c3.1-4,4.7-6,6.8-7.8  c1-0.8,2-1.6,2.9-2.5c1.4-1.3,2.5-2.8,3.3-4.6c0.8-2,1.1-4.3,0.8-6.4c-0.3-1.7-0.9-3.3-1.6-4.8c-1-2.6-2.2-5.1-3.5-7.6  c-1-1.9-1.1-2-3.3-6c-1.4-2.7-1.7-3.2-1.8-3.5c-0.5-1.1-1.4-3.2-2.2-5.7c-0.3-1-0.8-1.9-1.2-2.8s-0.6-1.6-1-1.7  c-0.5,0-0.9,1.3-1,1.4c-0.1,0.4-0.2,0.8-0.2,1.3c0,0.6,0.1,1.1,0.3,1.7l1.5,4.5c0.3,0.7,0,0.1,1.7,5c0.9,2.7,1.4,4.1,1.7,4.9  c1.2,3.3,1.5,3.9,2.1,6.2c0.4,1.2,0.6,2.4,0.8,3.6c0.2,1.2,0.2,2.4,0.1,3.6c-0.2,2-0.9,3.9-2.1,5.5c-1,1.1-2.1,2-3.3,2.7  c-1.8,1.4-3.9,2.5-6.1,3.2c-0.6,0.2-1.3,0.4-2,0.5c-1.2,0.1-3.4-0.2-8.1-5.3c-2.7-2.9-2.7-3.6-6.1-7.3c-1.1-1.2-2.2-2.4-3.9-4  c-2.1-1.8-4.3-3.5-6.5-5.1c-7.5-5.6-8.2-6.1-9.3-6.7s-3.5-1.8-3.4-2c0.6,0,1.3,0.1,1.9,0.4c0.4,0.2,0.9,0.3,1.4,0.2  c0.3-0.1,0.5-0.3,0.6-0.5c0.1-0.5,0-0.9-0.2-1.3c-0.6-1.2-1.3-2.4-2.1-3.5c-2.1-2.5-1.2-1.9-4-5c-2.2-2.5-1.8-1.8-4.3-4.6  c-1.4-1.5-2.9-2.9-4.5-4.1c-0.4-0.3-0.9-0.6-1.4-0.7c-0.5-0.1-1-0.3-1.4,0c-0.3,0.3-0.4,0.7-0.4,1.1c0,0.1,0,0.2,0.1,0.3  c0.3,0.6,0.7,1.1,1.2,1.5c0.4,0.5,0.8,1,1.1,1.6c0.4,0.6,0.4,0.6,1.1,1.7s1.1,1.6,1.5,2.2c1.9,2.9,1,1.8,1.9,3.2  c0.3,0.4,0.5,0.9,0.6,1.4c0,0.3,0.1,0.8-0.1,1s-1,0.2-1.4,0.2c-1.3-0.2-2.5-0.6-3.7-1.2c-1.6-0.9-3.2-1.6-4.7-2.5l-5.7-3.2  c-5.2-2.9-4.8-2.3-8.4-4.4c-2.4-1.4-4.4-2.8-7.6-3.6l-1.3-0.3c-3.2-0.7-5.6-1.2-6.5-1.4c-6.3-1.3-6.4-1.5-11-2.4  c-1.5-0.3-1.4-0.2-7.1-1.2c-0.7-0.1-1.9-0.3-3.5-0.4c-0.4-0.1-0.8-0.1-1.2-0.1c-0.7,0-1.2,0-1.4,0.3s0.4,1.2,0.5,1.2  c0.1,0.1,0.3,0.3,0.5,0.4c0.6,0.4,1.2,0.7,1.9,0.9c0.9,0.3,1.8,0.7,2.6,1c2.9,1,2.8,1.1,6.6,2.4c1.6,0.6,1,0.3,4.6,1.6  c4.5,1.6,5.5,2,6.2,2.2c1.4,0.6,2.4,1,4.4,1.9c1.8,0.8,2.6,1.2,6.4,3.1l7.7,3.7c1.8,0.8,2.9,1.3,4.6,2.3c1.4,0.8,1.6,1,3.6,2.1  c3.8,2.2,4,2.1,6.8,3.8c2.5,1.5,4.1,2.7,4.6,3c1.1,0.7,2.2,1.6,3.1,2.5c1.1,1.2,1.3,1.5,1.4,1.8c0.4,1.5-0.8,2.7-0.3,3.2  c0.3,0.3,0.8,0.1,1.9-0.1c0.6-0.1,1.1-0.3,1.7-0.6c1.9-0.8,2.6-1.3,2.8-1.1s-0.4,1-1,1.6c-0.8,0.7-1.7,1.3-2.8,1.5  c-3.7,1-8.5-0.6-9.3-0.8c-2.2-0.8-4.2-1.7-6.2-2.9c-3-1.6-2.7-1.6-7.2-4.1c-1.8-1-3.5-2.1-5.3-3.1c-0.3-0.2-0.6-0.3-0.9-0.5  c-0.8-0.6-1.5-1.2-2.2-1.9c-1.1-1.2-2.1-2.4-3.1-3.7c-1.1-1.4-2.1-2.8-2.9-4.3c-0.4-0.8-0.8-1.5-1.4-2.2c-0.1,0,0,0.4,0.2,1.2  c0.3,1.1,0.6,2.3,1,3.4c0.7,1.9,1.5,3.8,2.4,5.6c1.2,3.2,3.1,6.1,5.5,8.5c0.8,0.7,1.6,1.4,2.4,2.1c1.8,1.5,2.9,2,7.3,4.7  c4.2,2.6,4.6,2.8,6.1,3.6c2.2,1.1,4,1.7,4.6,2c1.4,0.5,2.1,0.7,7.1,2c2.8,0.7,4.1,1.1,5,1.4c2.6,0.7,4.8,1.4,7.1,2.1  c1.5,0.5,2.3,0.7,2.7,0.9c2.2,0.9,4.3,2.2,6.1,3.8c2.4,2.1,3.8,4,6.4,7.7c0.5,0.7,0.9,1.4,1.3,2.1c0.5,0.9,1,1.9,1.3,2.9  c0.2,0.8,0.4,1.6,0.4,2.4c0,0.6,0,1.2,0,1.9c0,0.4,0,0.9,0.2,3.3c0.2,3.7,0.3,3.2,0.3,4.6c0.1,1.9,0,2.8,0.2,4.6  c0.1,0.6,0.2,1.3,0.2,1.5c0.3,2,0.4,2,0.6,3.5c0.1,0.9,0.3,1.7,0.4,2.6c0,0.4,0.1,0.8,0.3,1.2c0.6,2.4-1.7,6.7-1.9,6.6l0,0  c0-0.1,12-1.7,12.5-5.5C274.3,174.9,273.8,174.6,273.2,173.3z"></path>	<g class="st1">		<path class="st0" d="M466.4,293.3h-46.5V158.4H468c34.1,0,57.4,22,57.4,71.3C525.4,269.7,503.7,293.3,466.4,293.3z M461,178.9   h-12.6v93.8h14.9c20.2,0,31.1-10.4,31.1-46.2C494.4,190.4,480.5,178.9,461,178.9z"></path>		<path class="st0" d="M546.3,293.3V158.4H628V180h-52v32.5h46.7v22.8H576v36.2h56.4v21.8H546.3z"></path>		<path class="st0" d="M653.3,293.3V158.4h81.7V180h-52v32.5h46.7v22.8H683v36.2h56.4v21.8H653.3z"></path>		<path class="st0" d="M825.4,293.3c-3.7-2.6-4.7-9.3-5.3-15.5c-0.2-4-0.2-14.4-0.4-21.1c-0.2-9.5-3.9-16.7-16.3-16.7h-13.2v53.2   h-30V158.4h47.2c30.7,0,46.7,14,46.7,40.2c0,20.7-13.2,26.7-26.9,29.2c17.4,2.6,22.8,14.2,23.5,36.4c0.2,5.3,0.5,10.7,0.7,14   c0.4,5.6,2.5,12.8,4.9,15.1H825.4z M798.5,179.1h-8.3v38.8H802c13.3,0,21.2-4.4,21.2-19.1C823.3,185.1,814.1,179.1,798.5,179.1z"></path>	</g>	<g class="st1">		<path class="st0" d="M972.4,242.5h-15.6v50.8h-30V158.4H969c30.9,0,51.3,10.5,51.3,41.8C1020.3,230.9,1000.1,242.5,972.4,242.5z    M969.5,178.9h-12.8v42.5h13.3c10.5,0,18.4-6.3,18.4-21.2S981.3,178.9,969.5,178.9z"></path>	</g>	<g class="st1">		<path class="st0" d="M1099.5,293.3l-7.7-27.6h-36.7l-7,27.6h-29.7l37.2-134.9h37.1l37.4,134.9H1099.5z M1079.5,217.6   c-2.3-9.1-5.4-22-6.3-28.8c-0.9,6.8-4,19.7-6.5,29c-2.5,10-6,25.6-6,25.6h24.9C1085.6,243.4,1081.9,227.6,1079.5,217.6z"></path>		<path class="st0" d="M1212.6,293.3c-3.7-2.6-4.7-9.3-5.3-15.5c-0.2-4-0.2-14.4-0.4-21.1c-0.2-9.5-3.9-16.7-16.3-16.7h-13.2v53.2   h-30V158.4h47.2c30.7,0,46.7,14,46.7,40.2c0,20.7-13.2,26.7-26.9,29.2c17.4,2.6,22.8,14.2,23.5,36.4c0.2,5.3,0.5,10.7,0.7,14   c0.4,5.6,2.5,12.8,4.9,15.1H1212.6z M1185.7,179.1h-8.3v38.8h11.8c13.3,0,21.2-4.4,21.2-19.1   C1210.5,185.1,1201.4,179.1,1185.7,179.1z"></path>		<path class="st0" d="M1336,293.3l-39.5-59.2v59.2h-30V158.4h30v52.3l34.6-52.3h32.5l-42.7,62.5l49.9,72.4H1336z"></path>	</g>	<g class="st1">		<path class="st0" d="M419.9,334.4h29.9v52.2h42.5v-52.2h30v134.9h-30v-59h-42.5v59h-29.9V334.4z"></path>		<path class="st0" d="M549.5,469.3V334.4h81.7V356h-52v32.5h46.7v22.8h-46.7v36.2h56.4v21.8H549.5z"></path>		<path class="st0" d="M656.8,469.3V334.4h30.4v134.9H656.8z"></path>		<path class="st0" d="M802.4,469.3l-7.7-11.8l-2.5,2.6c-6.3,6.7-17,11.2-29.3,11.2c-30.9,0-53.6-14-53.6-65.7   c0-53.6,20.5-73.4,54.8-73.4c34.9,0,50.8,19,49.7,46.4l-28.4,1.8c1.6-17.9-4.7-29.2-21.2-29.2c-18.4,0-23.9,11.8-23.9,54.3   c0,37.9,7.4,46.9,23.5,46.9c17.2,0,23.5-8.8,24.8-25.1c0.2-2.1,0.2-5.6,0.2-5.6H766v-21.6h48.6v69.2H802.4z"></path>		<path class="st0" d="M838.7,334.4h29.9v52.2h42.5v-52.2h30v134.9h-30v-59h-42.5v59h-29.9V334.4z"></path>	</g>	<g class="st1">		<path class="st0" d="M1021.4,356.5v112.7h-30V356.5h-33.2v-22.1h96.4v22.1H1021.4z"></path>	</g>	<g class="st1">		<path class="st0" d="M1113.4,471.4c-30.7,0-47.1-12.6-47.1-33.4c0-4.6,0.9-7.4,1.8-10.5l28.1-0.9c-0.9,2.5-1.8,4.9-1.8,9.1   c0,9.7,5.1,16,19.1,16c13.5,0,21.2-5.1,21.2-16.9c0-9.3-5.3-15.6-25.6-23.4l-19.8-7.6c-16.2-6.1-22-18.6-22-33.7   c0-22,15.3-37.9,46-37.9c25.1,0,42,13.2,42,32.5c0,2.5-0.7,6.3-1.8,9.3l-26.3,0.7c0.5-1.8,0.9-3.9,0.9-6.5   c0-12.6-6.3-16.9-17-16.9c-10.4,0-16.3,5.1-16.3,13c0,9.1,5.3,13.2,18.8,18.6l22.1,9c19.1,7.7,27.9,21.4,27.9,37.4   C1163.6,457.3,1146.7,471.4,1113.4,471.4z"></path>	</g></g></svg>